<svg width="2621" height="826" viewBox="0 0 2621 826" fill="none" xmlns="http://www.w3.org/2000/svg">
<g clip-path="url(#clip0_534_6280)">
<path d="M1035.57 770H870.793L1121.86 42.7273H1320.01L1570.72 770H1405.95L1223.78 208.92H1218.09L1035.57 770ZM1025.27 484.134H1414.47V604.162H1025.27V484.134ZM1655.42 770V224.545H1802.08V319.716H1807.76C1817.7 285.862 1834.39 260.294 1857.83 243.011C1881.27 225.492 1908.26 216.733 1938.8 216.733C1946.37 216.733 1954.54 217.206 1963.3 218.153C1972.06 219.1 1979.75 220.402 1986.38 222.06V356.293C1979.28 354.162 1969.46 352.268 1956.91 350.611C1944.36 348.954 1932.88 348.125 1922.46 348.125C1900.21 348.125 1880.32 352.978 1862.8 362.685C1845.52 372.154 1831.79 385.412 1821.61 402.457C1811.67 419.503 1806.69 439.152 1806.69 461.406V770H1655.42ZM2285.65 780.653C2229.78 780.653 2181.72 768.816 2141.48 745.142C2101.47 721.231 2070.69 688.087 2049.15 645.71C2027.84 603.333 2017.19 554.564 2017.19 499.403C2017.19 443.532 2027.96 394.527 2049.5 352.386C2071.28 310.009 2102.18 276.984 2142.19 253.31C2182.2 229.399 2229.78 217.443 2284.94 217.443C2332.53 217.443 2374.2 226.084 2409.94 243.366C2445.69 260.649 2473.98 284.915 2494.82 316.165C2515.65 347.415 2527.13 384.11 2529.26 426.25H2386.51C2382.48 399.025 2371.83 377.126 2354.55 360.554C2337.5 343.745 2315.13 335.341 2287.43 335.341C2263.99 335.341 2243.51 341.733 2226 354.517C2208.71 367.064 2195.22 385.412 2185.51 409.56C2175.81 433.707 2170.95 462.945 2170.95 497.273C2170.95 532.074 2175.69 561.667 2185.16 586.051C2194.86 610.436 2208.48 629.02 2226 641.804C2243.51 654.588 2263.99 660.98 2287.43 660.98C2304.71 660.98 2320.22 657.429 2333.95 650.327C2347.92 643.224 2359.4 632.926 2368.4 619.432C2377.63 605.701 2383.67 589.247 2386.51 570.071H2529.26C2526.89 611.738 2515.53 648.433 2495.17 680.156C2475.05 711.643 2447.23 736.264 2411.72 754.02C2376.21 771.776 2334.19 780.653 2285.65 780.653Z" fill="#7B61FF"/>
<path d="M370 770C563.3 770 720 613.3 720 420C720 226.7 563.3 70 370 70C176.7 70 20 226.7 20 420C20 613.3 176.7 770 370 770Z" fill="#7B61FF"/>
<path d="M264.22 565.082C254.904 530.312 256.107 493.562 267.677 459.477C279.248 425.391 300.666 395.5 329.224 373.586C357.782 351.674 392.196 338.722 428.115 336.368C464.034 334.014 499.845 342.364 531.018 360.362" stroke="white" stroke-width="50"/>
</g>
<defs>
<clipPath id="clip0_534_6280">
<rect width="2621" height="826" fill="white"/>
</clipPath>
</defs>
</svg>
