<?xml version="1.0" encoding="utf-8"?>
<!-- Generator: Adobe Illustrator 25.1.0, SVG Export Plug-In . SVG Version: 6.00 Build 0)  -->
<svg version="1.0" id="Layer_1" xmlns="http://www.w3.org/2000/svg" xmlns:xlink="http://www.w3.org/1999/xlink" x="0px" y="0px"
	 viewBox="0 0 280 300" enable-background="new 0 0 280 300" xml:space="preserve">
<path id="path946" display="none" fill="#FFFFFF" d="M-480.58-97.42c0-113.25,0-226.49,0-339.75c160.19,0,320.39,0,480.58,0
	C0-323.91,0-210.67,0-97.42C-160.19-97.42-320.39-97.42-480.58-97.42z"/>
<g>
	<path d="M44.91,126.38c2.25,1.82,3.11,1.71,7.36,1.43l40.06-2.39c0.86,0,0.14-0.86-0.14-1l-6.64-4.82c-1.29-1-2.96-2.11-6.21-1.86
		l-38.78,2.82c-1.43,0.14-1.71,0.86-1.14,1.43L44.91,126.38z M47.3,135.7v42.13c0,2.25,1.14,3.11,3.68,2.96l44.03-2.54
		c2.54-0.14,2.82-1.71,2.82-3.54v-41.85c0-1.82-0.71-2.82-2.25-2.68l-45.99,2.68C47.87,133.02,47.3,133.88,47.3,135.7z
		 M90.76,137.98c0.29,1.29,0,2.54-1.29,2.68l-2.11,0.43v31.1c-1.86,1-3.54,1.57-4.96,1.57c-2.25,0-2.82-0.71-4.53-2.82l-13.89-21.78
		v21.07l4.39,1c0,0,0,2.54-3.54,2.54l-9.75,0.57c-0.29-0.57,0-1.96,1-2.25l2.54-0.71v-27.85l-3.54-0.29
		c-0.29-1.29,0.43-3.11,2.39-3.25l10.46-0.71l14.43,22.07v-19.53l-3.68-0.43c-0.29-1.57,0.86-2.68,2.25-2.82L90.76,137.98z
		 M37.27,116.77l40.35-2.96c4.96-0.43,6.21-0.14,9.36,2.11l12.89,9.03c2.14,1.57,2.82,1.96,2.82,3.68v49.63
		c0,3.11-1.14,4.96-5.11,5.25l-46.85,2.82c-2.96,0.14-4.39-0.29-5.96-2.25l-9.5-12.32c-1.71-2.25-2.39-3.96-2.39-5.93V121.7
		C32.88,119.17,34.02,117.06,37.27,116.77z"/>
	<g>
		<path d="M141.43,174.23h-5L122,146.98v27.24h-3.78v-30.46h6.28l13.18,24.85v-24.85h3.79v30.46H141.43z"/>
		<path d="M168.67,162.84c0,3.71-0.96,6.64-2.86,8.82c-1.89,2.14-4.46,3.21-7.68,3.21s-5.78-1.07-7.71-3.21
			c-1.89-2.14-2.86-5.11-2.86-8.82c0-3.71,0.96-6.68,2.86-8.82c1.89-2.14,4.46-3.25,7.71-3.25c3.21,0,5.75,1.07,7.68,3.25
			C167.71,156.16,168.67,159.12,168.67,162.84z M164.71,162.84c0-2.96-0.57-5.14-1.75-6.61c-1.14-1.43-2.75-2.14-4.82-2.14
			s-3.71,0.71-4.86,2.14c-1.14,1.43-1.71,3.64-1.71,6.61c0,2.86,0.57,5.03,1.75,6.5c1.14,1.46,2.79,2.21,4.86,2.21
			c2.04,0,3.64-0.75,4.82-2.21C164.14,167.91,164.71,165.73,164.71,162.84z"/>
		<path d="M186.49,174.05c-0.71,0.18-1.5,0.36-2.36,0.46s-1.61,0.18-2.29,0.18c-2.32,0-4.11-0.64-5.32-1.89
			c-1.21-1.25-1.82-3.25-1.82-6.03v-12.14h-2.61v-3.21h2.61v-6.57h3.86v6.57h7.93v3.21h-7.93v10.39c0,1.21,0.04,2.14,0.07,2.82
			c0.07,0.68,0.25,1.32,0.57,1.89c0.29,0.54,0.71,0.93,1.25,1.18s1.32,0.39,2.39,0.39c0.64,0,1.29-0.11,1.96-0.29
			c0.68-0.18,1.18-0.32,1.46-0.46h0.21L186.49,174.05L186.49,174.05z"/>
		<path d="M195.24,147.59h-4.32v-4h4.32V147.59z M194.99,174.23h-3.86v-22.85h3.86V174.23z"/>
		<path d="M222.09,162.84c0,3.71-0.96,6.64-2.86,8.82c-1.89,2.14-4.46,3.21-7.68,3.21s-5.78-1.07-7.71-3.21
			c-1.89-2.14-2.86-5.11-2.86-8.82c0-3.71,0.96-6.68,2.86-8.82c1.89-2.14,4.46-3.25,7.71-3.25c3.21,0,5.75,1.07,7.68,3.25
			C221.13,156.16,222.09,159.12,222.09,162.84z M218.09,162.84c0-2.96-0.57-5.14-1.75-6.61c-1.14-1.43-2.75-2.14-4.82-2.14
			s-3.71,0.71-4.86,2.14s-1.71,3.64-1.71,6.61c0,2.86,0.57,5.03,1.75,6.5c1.14,1.46,2.79,2.21,4.86,2.21c2.04,0,3.64-0.75,4.82-2.21
			C217.52,167.91,218.09,165.73,218.09,162.84z"/>
		<path d="M247.12,174.23h-3.86v-13c0-1.04-0.07-2.04-0.18-2.96s-0.36-1.64-0.68-2.14c-0.36-0.57-0.82-1-1.46-1.29
			c-0.64-0.29-1.46-0.43-2.5-0.43c-1.04,0-2.14,0.25-3.29,0.79c-1.14,0.54-2.25,1.18-3.29,2v17.07h-3.86v-22.85h3.86v2.54
			c1.21-1,2.43-1.79,3.71-2.32c1.29-0.57,2.61-0.82,3.96-0.82c2.46,0,4.36,0.75,5.64,2.21c1.29,1.5,1.93,3.64,1.93,6.43V174.23z"/>
	</g>
</g>
</svg>
